<svg xmlns="http://www.w3.org/2000/svg" width="30" height="30.002" viewBox="0 0 30 30.002"><defs><style>.a{fill:#9a9abe;}</style></defs><g transform="translate(-0.018)"><g transform="translate(0.018)"><g transform="translate(0)"><path class="a" d="M29.245,9.442a2.64,2.64,0,0,0-3.729,0l-2.644,2.647V5.123A2.619,2.619,0,0,0,22.1,3.258L19.613.772A2.619,2.619,0,0,0,17.748,0H2.655A2.64,2.64,0,0,0,.018,2.637V27.365A2.64,2.64,0,0,0,2.655,30H20.234a2.64,2.64,0,0,0,2.637-2.637V19.55l6.374-6.379A2.635,2.635,0,0,0,29.245,9.442ZM17.6,1.758a.959.959,0,0,1,.772.257L20.856,4.5a.959.959,0,0,1,.257.772H17.6Zm3.516,25.607a.88.88,0,0,1-.879.879H2.655a.88.88,0,0,1-.879-.879V2.637a.88.88,0,0,1,.879-.879H15.839V6.153a.879.879,0,0,0,.879.879h4.395v6.816l-2.593,2.6-1.242,1.243a.879.879,0,0,0-.212.344l-1.243,3.729a.879.879,0,0,0,1.112,1.112l3.729-1.243a.878.878,0,0,0,.344-.212l.107-.107Zm-1.971-9.058,1.243,1.243-.475.475-1.865.621.621-1.865Zm2.486,0-1.243-1.243,4.225-4.229,1.243,1.243ZM28,11.928l-.906.907-1.243-1.243.906-.907A.879.879,0,1,1,28,11.928Z" transform="translate(-0.018)"/></g></g><g transform="translate(3.534 8.79)"><path class="a" d="M73.2,150H60.9a.879.879,0,0,0,0,1.758H73.2a.879.879,0,0,0,0-1.758Z" transform="translate(-60.018 -150)"/></g><g transform="translate(3.534 12.306)"><path class="a" d="M69.687,210H60.9a.879.879,0,1,0,0,1.758h8.79a.879.879,0,0,0,0-1.758Z" transform="translate(-60.018 -210)"/></g><g transform="translate(3.534 15.821)"><path class="a" d="M69.687,270H60.9a.879.879,0,0,0,0,1.758h8.79a.879.879,0,0,0,0-1.758Z" transform="translate(-60.018 -270)"/></g><g transform="translate(3.534 19.337)"><path class="a" d="M69.687,330H60.9a.879.879,0,0,0,0,1.758h8.79a.879.879,0,0,0,0-1.758Z" transform="translate(-60.018 -330)"/></g><g transform="translate(10.566 24.728)"><path class="a" d="M186.171,422H180.9a.879.879,0,1,0,0,1.758h5.274a.879.879,0,0,0,0-1.758Z" transform="translate(-180.018 -422)"/></g></g></svg>