<svg xmlns="http://www.w3.org/2000/svg" width="27" height="30" viewBox="0 0 27 30"><defs><style>.a{fill:#9a9abe;}</style></defs><g transform="translate(-31)"><g transform="translate(31)"><g transform="translate(0)"><path class="a" d="M55.3,3.516h-.9V2.637A2.672,2.672,0,0,0,51.7,0h-18A2.672,2.672,0,0,0,31,2.637V23.848a2.672,2.672,0,0,0,2.7,2.637h.9v.879A2.672,2.672,0,0,0,37.3,30h18A2.672,2.672,0,0,0,58,27.363V6.152A2.672,2.672,0,0,0,55.3,3.516ZM35.391,6.774A2.588,2.588,0,0,0,34.6,8.638V24.727h-.9a.891.891,0,0,1-.9-.879V2.637a.891.891,0,0,1,.9-.879h18a.891.891,0,0,1,.9.879v.879H39.846a2.715,2.715,0,0,0-1.909.772ZM40,5.273V8.789H36.4V8.638a.863.863,0,0,1,.264-.621l2.546-2.486a.905.905,0,0,1,.636-.257H40Zm16.2,22.09a.891.891,0,0,1-.9.879h-18a.891.891,0,0,1-.9-.879V10.547h4.5a.89.89,0,0,0,.9-.879V5.273H55.3a.891.891,0,0,1,.9.879Z" transform="translate(-31)"/></g></g><g transform="translate(38.2 12.403)"><g transform="translate(0)"><path class="a" d="M166.3,212H151.9a.9.9,0,1,0,0,1.8h14.4a.9.9,0,1,0,0-1.8Z" transform="translate(-151 -212)"/></g></g><g transform="translate(38.2 15.914)"><g transform="translate(0)"><path class="a" d="M166.3,272H151.9a.9.9,0,1,0,0,1.8h14.4a.9.9,0,0,0,0-1.8Z" transform="translate(-151 -272)"/></g></g><g transform="translate(38.2 19.424)"><g transform="translate(0)"><path class="a" d="M166.3,332H151.9a.9.9,0,1,0,0,1.8h14.4a.9.9,0,1,0,0-1.8Z" transform="translate(-151 -332)"/></g></g><g transform="translate(38.2 22.934)"><g transform="translate(0)"><path class="a" d="M166.3,392H151.9a.9.9,0,1,0,0,1.8h14.4a.9.9,0,1,0,0-1.8Z" transform="translate(-151 -392)"/></g></g></g></svg>