<svg xmlns="http://www.w3.org/2000/svg" width="34" height="30" viewBox="0 0 34 30"><defs><style>.a{fill:#9a9abe;}</style></defs><g transform="translate(0 -33)"><path class="a" d="M31.277,48.458A3.016,3.016,0,0,0,34,45.444V36.027A3.011,3.011,0,0,0,31.012,33H21.117a3.011,3.011,0,0,0-2.988,3.027V40H5.711a3.011,3.011,0,0,0-2.988,3.027V55.13a3.048,3.048,0,0,0,.171,1.009h-1.1A1.807,1.807,0,0,0,0,57.955,5.019,5.019,0,0,0,4.98,63H29.02A5.019,5.019,0,0,0,34,57.955a1.807,1.807,0,0,0-1.793-1.816h-1.1a3.048,3.048,0,0,0,.171-1.009ZM20.121,36.027a1,1,0,0,1,1-1.009h9.895a1,1,0,0,1,1,1.009v9.417a1,1,0,0,1-1,1.009h-9.23a.987.987,0,0,0-.528.153l-2.008,1.271.834-2.817a1.022,1.022,0,0,0,.042-.29Zm8.9,24.955H4.98A3.009,3.009,0,0,1,2,58.157H32A3.009,3.009,0,0,1,29.02,60.982ZM9.5,48.538a1.129,1.129,0,1,1,1.129,1.143A1.138,1.138,0,0,1,9.5,48.538Zm-.531,4.3c0-.609.776-1.143,1.66-1.143a2.016,2.016,0,0,1,1.254.411,1,1,0,0,1,.406.732v3.3H8.965Zm5.313,3.3v-3.3a2.989,2.989,0,0,0-1.154-2.308l-.05-.039a3.121,3.121,0,1,0-4.894,0,2.986,2.986,0,0,0-1.206,2.345v3.3H5.711a1,1,0,0,1-1-1.009V43.022a1,1,0,0,1,1-1.009H18.129v2.61L17.337,47.3a2.017,2.017,0,0,0,.7,2.184,1.956,1.956,0,0,0,2.264.107l1.766-1.118h7.218V55.13a1,1,0,0,1-1,1.009Z" transform="translate(0 0)"/><path class="a" d="M364.167,169h-2.156a1.011,1.011,0,0,0,0,2.021h2.156a1.011,1.011,0,0,0,0-2.021Z" transform="translate(-337.076 -126.853)"/><path class="a" d="M338.011,99.021H343.4a1.011,1.011,0,0,0,0-2.021h-5.391a1.011,1.011,0,0,0,0,2.021Z" transform="translate(-314.792 -59.688)"/></g></svg>