<svg xmlns="http://www.w3.org/2000/svg" width="36" height="30" viewBox="0 0 36 30"><defs><style>.a{fill:#9a9abe;}</style></defs><g transform="translate(0 -41)"><path class="a" d="M239.68,377h-5.625a1.055,1.055,0,0,0,0,2.109h5.625a1.055,1.055,0,0,0,0-2.109Z" transform="translate(-216.617 -312.609)"/><path class="a" d="M234.055,315.109h3.938a1.055,1.055,0,0,0,0-2.109h-3.938a1.055,1.055,0,0,0,0,2.109Z" transform="translate(-216.617 -253.034)"/><path class="a" d="M36,49.3a8.376,8.376,0,0,0-16.272-2.721H3.164A3.155,3.155,0,0,0,0,49.721V67.86A3.155,3.155,0,0,0,3.164,71H29.391a3.155,3.155,0,0,0,3.164-3.14V56.012A8.276,8.276,0,0,0,36,49.3Zm-8.367-6.209A6.209,6.209,0,1,1,21.375,49.3,6.241,6.241,0,0,1,27.633,43.093ZM30.445,67.86a1.052,1.052,0,0,1-1.055,1.047H3.164A1.052,1.052,0,0,1,2.109,67.86V49.721a1.052,1.052,0,0,1,1.055-1.047H19.289q-.024.311-.024.628a8.377,8.377,0,0,0,11.18,7.819Z"/><path class="a" d="M347.233,125.9a1.055,1.055,0,0,0,.822.576,1.074,1.074,0,0,0,.122.007,1.055,1.055,0,0,0,.81-.379l2.813-3.375a1.055,1.055,0,1,0-1.62-1.35l-1.78,2.136-.4-.808a1.055,1.055,0,0,0-1.887.943Z" transform="translate(-321.668 -74.429)"/><path class="a" d="M72.178,215.585a3.867,3.867,0,1,0-5.5,0A4.423,4.423,0,0,0,65,219.055v2.813a1.055,1.055,0,0,0,1.055,1.055H72.8a1.055,1.055,0,0,0,1.055-1.055v-2.812A4.423,4.423,0,0,0,72.178,215.585Zm-4.506-2.717a1.758,1.758,0,1,1,1.758,1.758A1.76,1.76,0,0,1,67.672,212.867Zm4.078,7.945H67.109v-1.758a2.32,2.32,0,1,1,4.641,0Z" transform="translate(-60.43 -156.422)"/></g></svg>